<mxfile host="app.diagrams.net" modified="2022-07-12T11:19:38.793Z" agent="5.0 (Macintosh; Intel Mac OS X 10_15_7) AppleWebKit/537.36 (KHTML, like Gecko) Chrome/103.0.0.0 Safari/537.36" etag="KfeLfJevUNsvpyjcaxbP" version="20.0.4" type="github" pages="5">
  <diagram id="hziUQXchdHCXrCwHnZnp" name="Page-1">
    <mxGraphModel dx="946" dy="614" grid="1" gridSize="10" guides="1" tooltips="1" connect="1" arrows="1" fold="1" page="1" pageScale="1" pageWidth="827" pageHeight="1169" math="0" shadow="0">
      <root>
        <mxCell id="0" />
        <mxCell id="1" parent="0" />
        <mxCell id="WgSunMm7363lahh_9tPj-23" value="" style="html=1;dashed=1;" parent="1" vertex="1">
          <mxGeometry x="90" y="800" width="430" height="350" as="geometry" />
        </mxCell>
        <mxCell id="WgSunMm7363lahh_9tPj-1" value="provider" style="shape=umlLifeline;perimeter=lifelinePerimeter;whiteSpace=wrap;html=1;container=1;collapsible=0;recursiveResize=0;outlineConnect=0;" parent="1" vertex="1">
          <mxGeometry x="160" y="80" width="110" height="450" as="geometry" />
        </mxCell>
        <mxCell id="WgSunMm7363lahh_9tPj-3" value="" style="html=1;points=[];perimeter=orthogonalPerimeter;" parent="WgSunMm7363lahh_9tPj-1" vertex="1">
          <mxGeometry x="50" y="70" width="10" height="30" as="geometry" />
        </mxCell>
        <mxCell id="WgSunMm7363lahh_9tPj-4" value="create consumer proposal" style="html=1;verticalAlign=bottom;startArrow=oval;endArrow=block;startSize=8;rounded=0;" parent="WgSunMm7363lahh_9tPj-1" target="WgSunMm7363lahh_9tPj-3" edge="1">
          <mxGeometry relative="1" as="geometry">
            <mxPoint x="-15" y="70" as="sourcePoint" />
          </mxGeometry>
        </mxCell>
        <mxCell id="WgSunMm7363lahh_9tPj-5" value="consumer created" style="html=1;verticalAlign=bottom;startArrow=oval;startFill=1;endArrow=block;startSize=8;rounded=0;" parent="WgSunMm7363lahh_9tPj-1" target="WgSunMm7363lahh_9tPj-1" edge="1">
          <mxGeometry width="60" relative="1" as="geometry">
            <mxPoint x="-10" y="120" as="sourcePoint" />
            <mxPoint x="50" y="120" as="targetPoint" />
          </mxGeometry>
        </mxCell>
        <mxCell id="WgSunMm7363lahh_9tPj-14" value="" style="html=1;points=[];perimeter=orthogonalPerimeter;" parent="WgSunMm7363lahh_9tPj-1" vertex="1">
          <mxGeometry x="47.5" y="160" width="10" height="210" as="geometry" />
        </mxCell>
        <mxCell id="WgSunMm7363lahh_9tPj-30" value="" style="html=1;points=[];perimeter=orthogonalPerimeter;" parent="WgSunMm7363lahh_9tPj-1" vertex="1">
          <mxGeometry x="57.5" y="260" width="10" height="60" as="geometry" />
        </mxCell>
        <mxCell id="WgSunMm7363lahh_9tPj-2" value="consumser" style="shape=umlLifeline;perimeter=lifelinePerimeter;whiteSpace=wrap;html=1;container=1;collapsible=0;recursiveResize=0;outlineConnect=0;" parent="1" vertex="1">
          <mxGeometry x="440" y="80" width="100" height="450" as="geometry" />
        </mxCell>
        <mxCell id="WgSunMm7363lahh_9tPj-17" value="" style="html=1;points=[];perimeter=orthogonalPerimeter;" parent="WgSunMm7363lahh_9tPj-2" vertex="1">
          <mxGeometry x="47.5" y="160" width="10" height="210" as="geometry" />
        </mxCell>
        <mxCell id="WgSunMm7363lahh_9tPj-10" value="consumer spawn" style="html=1;verticalAlign=bottom;endArrow=block;rounded=0;" parent="1" target="WgSunMm7363lahh_9tPj-2" edge="1">
          <mxGeometry x="0.1348" width="80" relative="1" as="geometry">
            <mxPoint x="580" y="220" as="sourcePoint" />
            <mxPoint x="650" y="230" as="targetPoint" />
            <Array as="points">
              <mxPoint x="530" y="220" />
            </Array>
            <mxPoint as="offset" />
          </mxGeometry>
        </mxCell>
        <mxCell id="WgSunMm7363lahh_9tPj-15" value="" style="html=1;verticalAlign=bottom;startArrow=oval;endArrow=block;startSize=8;rounded=0;" parent="1" target="WgSunMm7363lahh_9tPj-14" edge="1">
          <mxGeometry relative="1" as="geometry">
            <mxPoint x="482.5" y="240" as="sourcePoint" />
            <Array as="points">
              <mxPoint x="402.5" y="240" />
            </Array>
          </mxGeometry>
        </mxCell>
        <mxCell id="WgSunMm7363lahh_9tPj-22" value="channel open" style="edgeLabel;html=1;align=center;verticalAlign=middle;resizable=0;points=[];" parent="WgSunMm7363lahh_9tPj-15" vertex="1" connectable="0">
          <mxGeometry x="0.0113" y="3" relative="1" as="geometry">
            <mxPoint as="offset" />
          </mxGeometry>
        </mxCell>
        <mxCell id="WgSunMm7363lahh_9tPj-16" value="" style="html=1;verticalAlign=bottom;endArrow=block;rounded=0;" parent="1" target="WgSunMm7363lahh_9tPj-17" edge="1">
          <mxGeometry width="80" relative="1" as="geometry">
            <mxPoint x="222.5" y="280" as="sourcePoint" />
            <mxPoint x="482.5" y="280" as="targetPoint" />
            <Array as="points">
              <mxPoint x="422.5" y="280" />
            </Array>
          </mxGeometry>
        </mxCell>
        <mxCell id="WgSunMm7363lahh_9tPj-21" value="channel open ack(fee collector)" style="edgeLabel;html=1;align=center;verticalAlign=middle;resizable=0;points=[];" parent="WgSunMm7363lahh_9tPj-16" vertex="1" connectable="0">
          <mxGeometry x="0.0148" relative="1" as="geometry">
            <mxPoint as="offset" />
          </mxGeometry>
        </mxCell>
        <mxCell id="WgSunMm7363lahh_9tPj-19" value="" style="endArrow=classic;html=1;rounded=0;entryX=1.3;entryY=0.925;entryDx=0;entryDy=0;entryPerimeter=0;" parent="1" source="WgSunMm7363lahh_9tPj-17" target="WgSunMm7363lahh_9tPj-14" edge="1">
          <mxGeometry width="50" height="50" relative="1" as="geometry">
            <mxPoint x="332.5" y="390" as="sourcePoint" />
            <mxPoint x="382.5" y="340" as="targetPoint" />
          </mxGeometry>
        </mxCell>
        <mxCell id="WgSunMm7363lahh_9tPj-20" value="channel open confirm" style="edgeLabel;html=1;align=center;verticalAlign=middle;resizable=0;points=[];" parent="WgSunMm7363lahh_9tPj-19" vertex="1" connectable="0">
          <mxGeometry x="0.2884" y="-2" relative="1" as="geometry">
            <mxPoint x="37" as="offset" />
          </mxGeometry>
        </mxCell>
        <mxCell id="WgSunMm7363lahh_9tPj-24" value="&lt;b&gt;establish IBC channel&lt;/b&gt;" style="text;html=1;strokeColor=none;fillColor=none;align=center;verticalAlign=middle;whiteSpace=wrap;rounded=0;dashed=1;" parent="1" vertex="1">
          <mxGeometry x="112.5" y="330" width="100" height="30" as="geometry" />
        </mxCell>
        <mxCell id="WgSunMm7363lahh_9tPj-31" value="open new channel for IBC transfer" style="html=1;verticalAlign=bottom;endArrow=block;entryX=1;entryY=0;rounded=0;exitX=-0.3;exitY=0.474;exitDx=0;exitDy=0;exitPerimeter=0;" parent="1" source="WgSunMm7363lahh_9tPj-17" target="WgSunMm7363lahh_9tPj-30" edge="1">
          <mxGeometry relative="1" as="geometry">
            <mxPoint x="482.5" y="340" as="sourcePoint" />
          </mxGeometry>
        </mxCell>
        <mxCell id="WgSunMm7363lahh_9tPj-32" value="channel established" style="html=1;verticalAlign=bottom;endArrow=open;dashed=1;endSize=8;exitX=1;exitY=0.95;rounded=0;entryX=0.25;entryY=0.762;entryDx=0;entryDy=0;entryPerimeter=0;" parent="1" source="WgSunMm7363lahh_9tPj-30" target="WgSunMm7363lahh_9tPj-17" edge="1">
          <mxGeometry relative="1" as="geometry">
            <mxPoint x="480" y="397" as="targetPoint" />
          </mxGeometry>
        </mxCell>
      </root>
    </mxGraphModel>
  </diagram>
  <diagram id="JZK9vwnF-1s_ydZVnlyM" name="Page-2">
    <mxGraphModel dx="946" dy="614" grid="1" gridSize="10" guides="1" tooltips="1" connect="1" arrows="1" fold="1" page="1" pageScale="1" pageWidth="827" pageHeight="1169" math="0" shadow="0">
      <root>
        <mxCell id="0" />
        <mxCell id="1" parent="0" />
        <mxCell id="VmvayJgHvzuLTrCCBUwa-1" value="provider" style="shape=umlLifeline;perimeter=lifelinePerimeter;whiteSpace=wrap;html=1;container=1;collapsible=0;recursiveResize=0;outlineConnect=0;" parent="1" vertex="1">
          <mxGeometry x="160" y="120" width="100" height="1250" as="geometry" />
        </mxCell>
        <mxCell id="VmvayJgHvzuLTrCCBUwa-7" value="" style="html=1;points=[];perimeter=orthogonalPerimeter;" parent="VmvayJgHvzuLTrCCBUwa-1" vertex="1">
          <mxGeometry x="45" y="150" width="10" height="250" as="geometry" />
        </mxCell>
        <mxCell id="VmvayJgHvzuLTrCCBUwa-9" value="" style="html=1;points=[];perimeter=orthogonalPerimeter;" parent="VmvayJgHvzuLTrCCBUwa-1" vertex="1">
          <mxGeometry x="50" y="180" width="10" height="40" as="geometry" />
        </mxCell>
        <mxCell id="VmvayJgHvzuLTrCCBUwa-10" value="get valUpdates from staking" style="edgeStyle=orthogonalEdgeStyle;html=1;align=left;spacingLeft=2;endArrow=block;rounded=0;entryX=1;entryY=0;exitX=0.9;exitY=0.048;exitDx=0;exitDy=0;exitPerimeter=0;" parent="VmvayJgHvzuLTrCCBUwa-1" source="VmvayJgHvzuLTrCCBUwa-7" target="VmvayJgHvzuLTrCCBUwa-9" edge="1">
          <mxGeometry relative="1" as="geometry">
            <mxPoint x="60" y="160" as="sourcePoint" />
            <Array as="points">
              <mxPoint x="90" y="160" />
              <mxPoint x="90" y="180" />
            </Array>
          </mxGeometry>
        </mxCell>
        <mxCell id="VmvayJgHvzuLTrCCBUwa-14" value="" style="html=1;points=[];perimeter=orthogonalPerimeter;" parent="VmvayJgHvzuLTrCCBUwa-1" vertex="1">
          <mxGeometry x="50" y="260" width="10" height="40" as="geometry" />
        </mxCell>
        <mxCell id="VmvayJgHvzuLTrCCBUwa-15" value="get slashAcks" style="edgeStyle=orthogonalEdgeStyle;html=1;align=left;spacingLeft=2;endArrow=block;rounded=0;entryX=1;entryY=0;" parent="VmvayJgHvzuLTrCCBUwa-1" target="VmvayJgHvzuLTrCCBUwa-14" edge="1">
          <mxGeometry relative="1" as="geometry">
            <mxPoint x="55" y="240" as="sourcePoint" />
            <Array as="points">
              <mxPoint x="85" y="240" />
            </Array>
          </mxGeometry>
        </mxCell>
        <mxCell id="VmvayJgHvzuLTrCCBUwa-28" value="" style="html=1;points=[];perimeter=orthogonalPerimeter;" parent="VmvayJgHvzuLTrCCBUwa-1" vertex="1">
          <mxGeometry x="45" y="640" width="10" height="150" as="geometry" />
        </mxCell>
        <mxCell id="VmvayJgHvzuLTrCCBUwa-30" value="" style="html=1;points=[];perimeter=orthogonalPerimeter;" parent="VmvayJgHvzuLTrCCBUwa-1" vertex="1">
          <mxGeometry x="50" y="740" width="10" height="40" as="geometry" />
        </mxCell>
        <mxCell id="VmvayJgHvzuLTrCCBUwa-31" value="complete ubd if it is mature on provider side" style="edgeStyle=orthogonalEdgeStyle;html=1;align=left;spacingLeft=2;endArrow=block;rounded=0;entryX=1;entryY=0;" parent="VmvayJgHvzuLTrCCBUwa-1" target="VmvayJgHvzuLTrCCBUwa-30" edge="1">
          <mxGeometry relative="1" as="geometry">
            <mxPoint x="60" y="720" as="sourcePoint" />
            <Array as="points">
              <mxPoint x="80" y="720" />
              <mxPoint x="80" y="740" />
            </Array>
          </mxGeometry>
        </mxCell>
        <mxCell id="VmvayJgHvzuLTrCCBUwa-44" value="" style="html=1;points=[];perimeter=orthogonalPerimeter;" parent="VmvayJgHvzuLTrCCBUwa-1" vertex="1">
          <mxGeometry x="45" y="1030" width="10" height="150" as="geometry" />
        </mxCell>
        <mxCell id="VmvayJgHvzuLTrCCBUwa-46" value="" style="html=1;points=[];perimeter=orthogonalPerimeter;" parent="VmvayJgHvzuLTrCCBUwa-1" vertex="1">
          <mxGeometry x="50" y="1090" width="10" height="40" as="geometry" />
        </mxCell>
        <mxCell id="VmvayJgHvzuLTrCCBUwa-47" value="handle slash" style="edgeStyle=orthogonalEdgeStyle;html=1;align=left;spacingLeft=2;endArrow=block;rounded=0;entryX=1;entryY=0;" parent="VmvayJgHvzuLTrCCBUwa-1" target="VmvayJgHvzuLTrCCBUwa-46" edge="1">
          <mxGeometry relative="1" as="geometry">
            <mxPoint x="55" y="1070" as="sourcePoint" />
            <Array as="points">
              <mxPoint x="80" y="1070" />
            </Array>
          </mxGeometry>
        </mxCell>
        <mxCell id="VmvayJgHvzuLTrCCBUwa-2" value="consumer" style="shape=umlLifeline;perimeter=lifelinePerimeter;whiteSpace=wrap;html=1;container=1;collapsible=0;recursiveResize=0;outlineConnect=0;" parent="1" vertex="1">
          <mxGeometry x="440" y="120" width="100" height="1270" as="geometry" />
        </mxCell>
        <mxCell id="VmvayJgHvzuLTrCCBUwa-16" value="" style="html=1;points=[];perimeter=orthogonalPerimeter;" parent="VmvayJgHvzuLTrCCBUwa-2" vertex="1">
          <mxGeometry x="45" y="320" width="10" height="170" as="geometry" />
        </mxCell>
        <mxCell id="VmvayJgHvzuLTrCCBUwa-18" value="" style="html=1;points=[];perimeter=orthogonalPerimeter;" parent="VmvayJgHvzuLTrCCBUwa-2" vertex="1">
          <mxGeometry x="50" y="350" width="10" height="40" as="geometry" />
        </mxCell>
        <mxCell id="VmvayJgHvzuLTrCCBUwa-19" value="set pending vsc" style="edgeStyle=orthogonalEdgeStyle;html=1;align=left;spacingLeft=2;endArrow=block;rounded=0;entryX=1;entryY=0;exitX=0.9;exitY=0.045;exitDx=0;exitDy=0;exitPerimeter=0;" parent="VmvayJgHvzuLTrCCBUwa-2" source="VmvayJgHvzuLTrCCBUwa-16" target="VmvayJgHvzuLTrCCBUwa-18" edge="1">
          <mxGeometry relative="1" as="geometry">
            <mxPoint x="60" y="330" as="sourcePoint" />
            <Array as="points">
              <mxPoint x="90" y="330" />
              <mxPoint x="90" y="350" />
            </Array>
          </mxGeometry>
        </mxCell>
        <mxCell id="VmvayJgHvzuLTrCCBUwa-22" value="" style="html=1;points=[];perimeter=orthogonalPerimeter;" parent="VmvayJgHvzuLTrCCBUwa-2" vertex="1">
          <mxGeometry x="50" y="430" width="10" height="40" as="geometry" />
        </mxCell>
        <mxCell id="VmvayJgHvzuLTrCCBUwa-23" value="set unbonding packet" style="edgeStyle=orthogonalEdgeStyle;html=1;align=left;spacingLeft=2;endArrow=block;rounded=0;entryX=1;entryY=0;" parent="VmvayJgHvzuLTrCCBUwa-2" target="VmvayJgHvzuLTrCCBUwa-22" edge="1">
          <mxGeometry relative="1" as="geometry">
            <mxPoint x="55" y="410" as="sourcePoint" />
            <Array as="points">
              <mxPoint x="85" y="410" />
            </Array>
          </mxGeometry>
        </mxCell>
        <mxCell id="VmvayJgHvzuLTrCCBUwa-25" value="" style="html=1;points=[];perimeter=orthogonalPerimeter;" parent="VmvayJgHvzuLTrCCBUwa-2" vertex="1">
          <mxGeometry x="45" y="570" width="10" height="300" as="geometry" />
        </mxCell>
        <mxCell id="VmvayJgHvzuLTrCCBUwa-33" value="" style="html=1;points=[];perimeter=orthogonalPerimeter;" parent="VmvayJgHvzuLTrCCBUwa-2" vertex="1">
          <mxGeometry x="50" y="640" width="10" height="40" as="geometry" />
        </mxCell>
        <mxCell id="VmvayJgHvzuLTrCCBUwa-34" value="iterate over mature ubds" style="edgeStyle=orthogonalEdgeStyle;html=1;align=left;spacingLeft=2;endArrow=block;rounded=0;entryX=1;entryY=0;" parent="VmvayJgHvzuLTrCCBUwa-2" target="VmvayJgHvzuLTrCCBUwa-33" edge="1">
          <mxGeometry relative="1" as="geometry">
            <mxPoint x="55" y="620" as="sourcePoint" />
            <Array as="points">
              <mxPoint x="80" y="620" />
            </Array>
          </mxGeometry>
        </mxCell>
        <mxCell id="VmvayJgHvzuLTrCCBUwa-35" value="" style="html=1;points=[];perimeter=orthogonalPerimeter;" parent="VmvayJgHvzuLTrCCBUwa-2" vertex="1">
          <mxGeometry x="50" y="800" width="10" height="40" as="geometry" />
        </mxCell>
        <mxCell id="VmvayJgHvzuLTrCCBUwa-36" value="apply validator updates" style="edgeStyle=orthogonalEdgeStyle;html=1;align=left;spacingLeft=2;endArrow=block;rounded=0;entryX=1;entryY=0;" parent="VmvayJgHvzuLTrCCBUwa-2" target="VmvayJgHvzuLTrCCBUwa-35" edge="1">
          <mxGeometry relative="1" as="geometry">
            <mxPoint x="55" y="780" as="sourcePoint" />
            <Array as="points">
              <mxPoint x="80" y="780" />
            </Array>
          </mxGeometry>
        </mxCell>
        <mxCell id="VmvayJgHvzuLTrCCBUwa-37" value="" style="html=1;points=[];perimeter=orthogonalPerimeter;" parent="VmvayJgHvzuLTrCCBUwa-2" vertex="1">
          <mxGeometry x="45" y="940" width="10" height="280" as="geometry" />
        </mxCell>
        <mxCell id="VmvayJgHvzuLTrCCBUwa-40" value="" style="html=1;points=[];perimeter=orthogonalPerimeter;" parent="VmvayJgHvzuLTrCCBUwa-2" vertex="1">
          <mxGeometry x="50" y="970" width="10" height="40" as="geometry" />
        </mxCell>
        <mxCell id="VmvayJgHvzuLTrCCBUwa-41" value="slashing" style="edgeStyle=orthogonalEdgeStyle;html=1;align=left;spacingLeft=2;endArrow=block;rounded=0;entryX=1;entryY=0;" parent="VmvayJgHvzuLTrCCBUwa-2" target="VmvayJgHvzuLTrCCBUwa-40" edge="1">
          <mxGeometry relative="1" as="geometry">
            <mxPoint x="55" y="950" as="sourcePoint" />
            <Array as="points">
              <mxPoint x="80" y="950" />
            </Array>
          </mxGeometry>
        </mxCell>
        <mxCell id="VmvayJgHvzuLTrCCBUwa-4" value="staking txs" style="html=1;verticalAlign=bottom;endArrow=block;rounded=0;" parent="1" edge="1">
          <mxGeometry width="80" relative="1" as="geometry">
            <mxPoint x="130" y="210" as="sourcePoint" />
            <mxPoint x="210" y="210" as="targetPoint" />
          </mxGeometry>
        </mxCell>
        <mxCell id="VmvayJgHvzuLTrCCBUwa-17" value="send vsc packet" style="html=1;verticalAlign=bottom;startArrow=oval;endArrow=block;startSize=8;rounded=0;" parent="1" target="VmvayJgHvzuLTrCCBUwa-16" edge="1">
          <mxGeometry relative="1" as="geometry">
            <mxPoint x="210" y="440" as="sourcePoint" />
          </mxGeometry>
        </mxCell>
        <mxCell id="VmvayJgHvzuLTrCCBUwa-27" value="IBC transfer reward to fee colllector&lt;br&gt;(every BlocksPerDistributionTransmission)" style="html=1;verticalAlign=bottom;endArrow=block;rounded=0;exitX=0;exitY=0.12;exitDx=0;exitDy=0;exitPerimeter=0;" parent="1" source="VmvayJgHvzuLTrCCBUwa-25" edge="1">
          <mxGeometry width="80" relative="1" as="geometry">
            <mxPoint x="290" y="730" as="sourcePoint" />
            <mxPoint x="209.5" y="726" as="targetPoint" />
          </mxGeometry>
        </mxCell>
        <mxCell id="VmvayJgHvzuLTrCCBUwa-32" value="send mature vsc packet&lt;br&gt;(ubds matured)" style="html=1;verticalAlign=bottom;endArrow=block;rounded=0;entryX=0.9;entryY=0.37;entryDx=0;entryDy=0;entryPerimeter=0;" parent="1" target="VmvayJgHvzuLTrCCBUwa-28" edge="1">
          <mxGeometry width="80" relative="1" as="geometry">
            <mxPoint x="489.5" y="815.5" as="sourcePoint" />
            <mxPoint x="410" y="760" as="targetPoint" />
          </mxGeometry>
        </mxCell>
        <mxCell id="VmvayJgHvzuLTrCCBUwa-45" value="send slash packet" style="html=1;verticalAlign=bottom;endArrow=block;rounded=0;entryX=1;entryY=0.132;entryDx=0;entryDy=0;entryPerimeter=0;exitX=0;exitY=0.398;exitDx=0;exitDy=0;exitPerimeter=0;" parent="1" source="VmvayJgHvzuLTrCCBUwa-37" target="VmvayJgHvzuLTrCCBUwa-44" edge="1">
          <mxGeometry width="80" relative="1" as="geometry">
            <mxPoint x="374" y="1159.5" as="sourcePoint" />
            <mxPoint x="220" y="1170" as="targetPoint" />
          </mxGeometry>
        </mxCell>
        <mxCell id="VmvayJgHvzuLTrCCBUwa-48" value="ack" style="html=1;verticalAlign=bottom;endArrow=block;rounded=0;entryX=0;entryY=0.759;entryDx=0;entryDy=0;entryPerimeter=0;exitX=1.1;exitY=0.81;exitDx=0;exitDy=0;exitPerimeter=0;" parent="1" source="VmvayJgHvzuLTrCCBUwa-44" target="VmvayJgHvzuLTrCCBUwa-37" edge="1">
          <mxGeometry width="80" relative="1" as="geometry">
            <mxPoint x="220" y="1273" as="sourcePoint" />
            <mxPoint x="350" y="1270" as="targetPoint" />
          </mxGeometry>
        </mxCell>
        <mxCell id="VmvayJgHvzuLTrCCBUwa-49" value="provider end blocker" style="shape=umlFrame;whiteSpace=wrap;html=1;width=70;height=30;" parent="1" vertex="1">
          <mxGeometry x="120" y="240" width="540" height="390" as="geometry" />
        </mxCell>
        <mxCell id="VmvayJgHvzuLTrCCBUwa-50" value="consumer end block" style="shape=umlFrame;whiteSpace=wrap;html=1;" parent="1" vertex="1">
          <mxGeometry x="120" y="660" width="540" height="350" as="geometry" />
        </mxCell>
      </root>
    </mxGraphModel>
  </diagram>
  <diagram id="JMXYAuwgIDSSUqnzhoV6" name="Page-3">
    <mxGraphModel dx="946" dy="614" grid="1" gridSize="10" guides="1" tooltips="1" connect="1" arrows="1" fold="1" page="1" pageScale="1" pageWidth="827" pageHeight="1169" math="0" shadow="0">
      <root>
        <mxCell id="0" />
        <mxCell id="1" parent="0" />
        <mxCell id="J255vmfbYh2f7UuhsVDt-37" value="" style="rounded=0;whiteSpace=wrap;html=1;fillColor=#FFFF99;" parent="1" vertex="1">
          <mxGeometry x="180" y="300" width="370" height="280" as="geometry" />
        </mxCell>
        <mxCell id="J255vmfbYh2f7UuhsVDt-36" value="" style="rounded=0;whiteSpace=wrap;html=1;fillColor=#99FFCC;" parent="1" vertex="1">
          <mxGeometry x="176.25" y="660" width="373.75" height="190" as="geometry" />
        </mxCell>
        <mxCell id="J255vmfbYh2f7UuhsVDt-17" value="Tendermint Consensus" style="rounded=0;whiteSpace=wrap;html=1;" parent="1" vertex="1">
          <mxGeometry x="250" y="760" width="220" height="30" as="geometry" />
        </mxCell>
        <mxCell id="J255vmfbYh2f7UuhsVDt-2" value="bitos" style="ellipse;whiteSpace=wrap;html=1;aspect=fixed;fillColor=#F8CECC;" parent="1" vertex="1">
          <mxGeometry x="320" y="420" width="80" height="80" as="geometry" />
        </mxCell>
        <mxCell id="J255vmfbYh2f7UuhsVDt-3" value="subchain1" style="ellipse;whiteSpace=wrap;html=1;aspect=fixed;" parent="1" vertex="1">
          <mxGeometry x="320" y="310" width="80" height="80" as="geometry" />
        </mxCell>
        <mxCell id="J255vmfbYh2f7UuhsVDt-4" value="subchain2" style="ellipse;whiteSpace=wrap;html=1;aspect=fixed;" parent="1" vertex="1">
          <mxGeometry x="440" y="480" width="80" height="80" as="geometry" />
        </mxCell>
        <mxCell id="J255vmfbYh2f7UuhsVDt-5" value="subchain3" style="ellipse;whiteSpace=wrap;html=1;aspect=fixed;" parent="1" vertex="1">
          <mxGeometry x="200" y="480" width="80" height="80" as="geometry" />
        </mxCell>
        <mxCell id="J255vmfbYh2f7UuhsVDt-10" value="" style="shape=flexArrow;endArrow=classic;startArrow=classic;html=1;rounded=0;" parent="1" edge="1">
          <mxGeometry width="100" height="100" relative="1" as="geometry">
            <mxPoint x="364.5" y="650" as="sourcePoint" />
            <mxPoint x="365" y="590" as="targetPoint" />
          </mxGeometry>
        </mxCell>
        <mxCell id="J255vmfbYh2f7UuhsVDt-18" value="Tendermint P2P" style="rounded=0;whiteSpace=wrap;html=1;" parent="1" vertex="1">
          <mxGeometry x="250" y="790" width="220" height="30" as="geometry" />
        </mxCell>
        <mxCell id="J255vmfbYh2f7UuhsVDt-19" value="" style="endArrow=classic;startArrow=classic;html=1;rounded=0;exitX=0.5;exitY=0;exitDx=0;exitDy=0;entryX=0.5;entryY=1;entryDx=0;entryDy=0;" parent="1" source="J255vmfbYh2f7UuhsVDt-2" target="J255vmfbYh2f7UuhsVDt-3" edge="1">
          <mxGeometry width="50" height="50" relative="1" as="geometry">
            <mxPoint x="420" y="450" as="sourcePoint" />
            <mxPoint x="470" y="400" as="targetPoint" />
          </mxGeometry>
        </mxCell>
        <mxCell id="J255vmfbYh2f7UuhsVDt-23" value="ibc" style="edgeLabel;html=1;align=center;verticalAlign=middle;resizable=0;points=[];" parent="J255vmfbYh2f7UuhsVDt-19" vertex="1" connectable="0">
          <mxGeometry x="0.1" relative="1" as="geometry">
            <mxPoint as="offset" />
          </mxGeometry>
        </mxCell>
        <mxCell id="J255vmfbYh2f7UuhsVDt-20" value="" style="endArrow=classic;startArrow=classic;html=1;rounded=0;entryX=0;entryY=0.5;entryDx=0;entryDy=0;exitX=1;exitY=0;exitDx=0;exitDy=0;" parent="1" source="J255vmfbYh2f7UuhsVDt-5" target="J255vmfbYh2f7UuhsVDt-2" edge="1">
          <mxGeometry width="50" height="50" relative="1" as="geometry">
            <mxPoint x="280" y="520" as="sourcePoint" />
            <mxPoint x="330" y="470" as="targetPoint" />
          </mxGeometry>
        </mxCell>
        <mxCell id="J255vmfbYh2f7UuhsVDt-22" value="ibc" style="edgeLabel;html=1;align=center;verticalAlign=middle;resizable=0;points=[];" parent="J255vmfbYh2f7UuhsVDt-20" vertex="1" connectable="0">
          <mxGeometry x="-0.0152" y="-3" relative="1" as="geometry">
            <mxPoint as="offset" />
          </mxGeometry>
        </mxCell>
        <mxCell id="J255vmfbYh2f7UuhsVDt-21" value="" style="endArrow=classic;startArrow=classic;html=1;rounded=0;exitX=1;exitY=0.5;exitDx=0;exitDy=0;entryX=0;entryY=0;entryDx=0;entryDy=0;" parent="1" source="J255vmfbYh2f7UuhsVDt-2" target="J255vmfbYh2f7UuhsVDt-4" edge="1">
          <mxGeometry width="50" height="50" relative="1" as="geometry">
            <mxPoint x="420" y="475" as="sourcePoint" />
            <mxPoint x="470" y="425" as="targetPoint" />
          </mxGeometry>
        </mxCell>
        <mxCell id="J255vmfbYh2f7UuhsVDt-24" value="ibc" style="edgeLabel;html=1;align=center;verticalAlign=middle;resizable=0;points=[];" parent="J255vmfbYh2f7UuhsVDt-21" vertex="1" connectable="0">
          <mxGeometry x="0.0119" y="2" relative="1" as="geometry">
            <mxPoint as="offset" />
          </mxGeometry>
        </mxCell>
        <mxCell id="J255vmfbYh2f7UuhsVDt-26" value="VM" style="rounded=0;whiteSpace=wrap;html=1;" parent="1" vertex="1">
          <mxGeometry x="250" y="690" width="220" height="30" as="geometry" />
        </mxCell>
        <mxCell id="J255vmfbYh2f7UuhsVDt-28" value="" style="endArrow=classic;html=1;rounded=0;exitX=0.5;exitY=0;exitDx=0;exitDy=0;entryX=0.5;entryY=1;entryDx=0;entryDy=0;dashed=1;" parent="1" source="J255vmfbYh2f7UuhsVDt-17" target="J255vmfbYh2f7UuhsVDt-26" edge="1">
          <mxGeometry width="50" height="50" relative="1" as="geometry">
            <mxPoint x="510" y="790" as="sourcePoint" />
            <mxPoint x="560" y="740" as="targetPoint" />
          </mxGeometry>
        </mxCell>
        <mxCell id="J255vmfbYh2f7UuhsVDt-29" value="abci" style="edgeLabel;html=1;align=center;verticalAlign=middle;resizable=0;points=[];" parent="J255vmfbYh2f7UuhsVDt-28" vertex="1" connectable="0">
          <mxGeometry y="-2" relative="1" as="geometry">
            <mxPoint as="offset" />
          </mxGeometry>
        </mxCell>
        <mxCell id="J255vmfbYh2f7UuhsVDt-42" value="&lt;font style=&quot;font-size: 18px;&quot;&gt;&lt;b&gt;Bitchain&lt;/b&gt;&lt;/font&gt;" style="text;html=1;strokeColor=none;fillColor=none;align=center;verticalAlign=middle;whiteSpace=wrap;rounded=0;" parent="1" vertex="1">
          <mxGeometry x="190" y="660" width="60" height="30" as="geometry" />
        </mxCell>
        <mxCell id="J255vmfbYh2f7UuhsVDt-43" value="&lt;b&gt;Layer2&lt;/b&gt;" style="rounded=0;whiteSpace=wrap;html=1;fontSize=18;fillColor=#FFB570;" parent="1" vertex="1">
          <mxGeometry x="180" y="160" width="370" height="60" as="geometry" />
        </mxCell>
        <mxCell id="J255vmfbYh2f7UuhsVDt-50" value="APP" style="rounded=0;whiteSpace=wrap;html=1;fontSize=12;fillColor=#D4E1F5;" parent="1" vertex="1">
          <mxGeometry x="600" y="300" width="100" height="150" as="geometry" />
        </mxCell>
        <mxCell id="J255vmfbYh2f7UuhsVDt-51" value="Settlement" style="rounded=0;whiteSpace=wrap;html=1;fontSize=12;fillColor=#D4E1F5;" parent="1" vertex="1">
          <mxGeometry x="600" y="457.5" width="100" height="122.5" as="geometry" />
        </mxCell>
        <mxCell id="J255vmfbYh2f7UuhsVDt-52" value="Rollup" style="rounded=0;whiteSpace=wrap;html=1;fontSize=12;fillColor=#D4E1F5;" parent="1" vertex="1">
          <mxGeometry x="600" y="230" width="100" height="60" as="geometry" />
        </mxCell>
        <mxCell id="J255vmfbYh2f7UuhsVDt-53" value="Execution" style="rounded=0;whiteSpace=wrap;html=1;fontSize=12;fillColor=#D4E1F5;" parent="1" vertex="1">
          <mxGeometry x="600" y="160" width="100" height="60" as="geometry" />
        </mxCell>
        <mxCell id="J255vmfbYh2f7UuhsVDt-54" value="Interchain Security" style="rounded=0;whiteSpace=wrap;html=1;fontSize=12;fillColor=#D4E1F5;" parent="1" vertex="1">
          <mxGeometry x="600" y="590" width="100" height="60" as="geometry" />
        </mxCell>
        <mxCell id="J255vmfbYh2f7UuhsVDt-55" value="DA" style="rounded=0;whiteSpace=wrap;html=1;fontSize=12;fillColor=#D4E1F5;" parent="1" vertex="1">
          <mxGeometry x="600" y="660" width="100" height="90" as="geometry" />
        </mxCell>
        <mxCell id="J255vmfbYh2f7UuhsVDt-56" value="Consensus" style="rounded=0;whiteSpace=wrap;html=1;fontSize=12;fillColor=#D4E1F5;" parent="1" vertex="1">
          <mxGeometry x="600" y="760" width="100" height="90" as="geometry" />
        </mxCell>
        <mxCell id="J255vmfbYh2f7UuhsVDt-57" value="" style="shape=flexArrow;endArrow=classic;html=1;rounded=0;fontSize=12;" parent="1" edge="1">
          <mxGeometry width="50" height="50" relative="1" as="geometry">
            <mxPoint x="359.5" y="230" as="sourcePoint" />
            <mxPoint x="360" y="290" as="targetPoint" />
          </mxGeometry>
        </mxCell>
      </root>
    </mxGraphModel>
  </diagram>
  <diagram id="C7JXM0j8hF5Dq0tRWnN4" name="Page-4">
    <mxGraphModel dx="946" dy="614" grid="1" gridSize="10" guides="1" tooltips="1" connect="1" arrows="1" fold="1" page="1" pageScale="1" pageWidth="827" pageHeight="1169" math="0" shadow="0">
      <root>
        <mxCell id="0" />
        <mxCell id="1" parent="0" />
        <mxCell id="AEvKsbR4zwRr6FnZOKRj-10" value="" style="edgeStyle=orthogonalEdgeStyle;rounded=0;orthogonalLoop=1;jettySize=auto;html=1;" edge="1" parent="1" source="AEvKsbR4zwRr6FnZOKRj-1" target="AEvKsbR4zwRr6FnZOKRj-9">
          <mxGeometry relative="1" as="geometry">
            <Array as="points">
              <mxPoint x="290" y="270" />
              <mxPoint x="290" y="330" />
            </Array>
          </mxGeometry>
        </mxCell>
        <mxCell id="AEvKsbR4zwRr6FnZOKRj-12" value="25%" style="edgeLabel;html=1;align=center;verticalAlign=middle;resizable=0;points=[];" vertex="1" connectable="0" parent="AEvKsbR4zwRr6FnZOKRj-10">
          <mxGeometry x="0.32" y="3" relative="1" as="geometry">
            <mxPoint y="-9" as="offset" />
          </mxGeometry>
        </mxCell>
        <mxCell id="AEvKsbR4zwRr6FnZOKRj-20" style="edgeStyle=orthogonalEdgeStyle;rounded=0;orthogonalLoop=1;jettySize=auto;html=1;entryX=0;entryY=0.5;entryDx=0;entryDy=0;" edge="1" parent="1" source="AEvKsbR4zwRr6FnZOKRj-1" target="AEvKsbR4zwRr6FnZOKRj-7">
          <mxGeometry relative="1" as="geometry">
            <Array as="points">
              <mxPoint x="290" y="270" />
              <mxPoint x="290" y="200" />
            </Array>
          </mxGeometry>
        </mxCell>
        <mxCell id="AEvKsbR4zwRr6FnZOKRj-21" value="75%" style="edgeLabel;html=1;align=center;verticalAlign=middle;resizable=0;points=[];" vertex="1" connectable="0" parent="AEvKsbR4zwRr6FnZOKRj-20">
          <mxGeometry x="-0.0231" relative="1" as="geometry">
            <mxPoint as="offset" />
          </mxGeometry>
        </mxCell>
        <mxCell id="AEvKsbR4zwRr6FnZOKRj-26" value="transfer" style="edgeLabel;html=1;align=center;verticalAlign=middle;resizable=0;points=[];" vertex="1" connectable="0" parent="AEvKsbR4zwRr6FnZOKRj-20">
          <mxGeometry x="-0.6875" y="1" relative="1" as="geometry">
            <mxPoint x="5" as="offset" />
          </mxGeometry>
        </mxCell>
        <mxCell id="AEvKsbR4zwRr6FnZOKRj-1" value="fee_collector&lt;br&gt;address" style="rounded=0;whiteSpace=wrap;html=1;fillColor=#dae8fc;strokeColor=#6c8ebf;" vertex="1" parent="1">
          <mxGeometry x="110" y="240" width="120" height="60" as="geometry" />
        </mxCell>
        <mxCell id="AEvKsbR4zwRr6FnZOKRj-2" value="tx" style="rounded=0;whiteSpace=wrap;html=1;" vertex="1" parent="1">
          <mxGeometry x="90" y="130" width="40" height="30" as="geometry" />
        </mxCell>
        <mxCell id="AEvKsbR4zwRr6FnZOKRj-3" value="tx" style="rounded=0;whiteSpace=wrap;html=1;" vertex="1" parent="1">
          <mxGeometry x="130" y="130" width="40" height="30" as="geometry" />
        </mxCell>
        <mxCell id="AEvKsbR4zwRr6FnZOKRj-4" value="..." style="rounded=0;whiteSpace=wrap;html=1;" vertex="1" parent="1">
          <mxGeometry x="170" y="130" width="40" height="30" as="geometry" />
        </mxCell>
        <mxCell id="AEvKsbR4zwRr6FnZOKRj-5" value="" style="endArrow=classic;html=1;rounded=0;" edge="1" parent="1">
          <mxGeometry width="50" height="50" relative="1" as="geometry">
            <mxPoint x="170" y="180" as="sourcePoint" />
            <mxPoint x="170" y="230" as="targetPoint" />
          </mxGeometry>
        </mxCell>
        <mxCell id="AEvKsbR4zwRr6FnZOKRj-6" value="collect fee" style="edgeLabel;html=1;align=center;verticalAlign=middle;resizable=0;points=[];" vertex="1" connectable="0" parent="AEvKsbR4zwRr6FnZOKRj-5">
          <mxGeometry x="-0.28" y="1" relative="1" as="geometry">
            <mxPoint as="offset" />
          </mxGeometry>
        </mxCell>
        <mxCell id="AEvKsbR4zwRr6FnZOKRj-7" value="consumer_redistribute address" style="whiteSpace=wrap;html=1;rounded=0;fillColor=#f8cecc;strokeColor=#b85450;" vertex="1" parent="1">
          <mxGeometry x="320" y="170" width="120" height="60" as="geometry" />
        </mxCell>
        <mxCell id="AEvKsbR4zwRr6FnZOKRj-9" value="provider_reward&lt;br&gt;_staging address" style="whiteSpace=wrap;html=1;rounded=0;fillColor=#fff2cc;strokeColor=#d6b656;" vertex="1" parent="1">
          <mxGeometry x="320" y="300" width="120" height="60" as="geometry" />
        </mxCell>
        <mxCell id="AEvKsbR4zwRr6FnZOKRj-17" value="" style="endArrow=classic;html=1;rounded=0;dashed=1;dashPattern=1 1;" edge="1" parent="1">
          <mxGeometry width="50" height="50" relative="1" as="geometry">
            <mxPoint x="440" y="269.5" as="sourcePoint" />
            <mxPoint x="570" y="269.5" as="targetPoint" />
          </mxGeometry>
        </mxCell>
        <mxCell id="AEvKsbR4zwRr6FnZOKRj-18" value="after X blocks&amp;nbsp;" style="edgeLabel;html=1;align=center;verticalAlign=middle;resizable=0;points=[];" vertex="1" connectable="0" parent="AEvKsbR4zwRr6FnZOKRj-17">
          <mxGeometry x="-0.0462" y="1" relative="1" as="geometry">
            <mxPoint x="-2" y="1" as="offset" />
          </mxGeometry>
        </mxCell>
        <mxCell id="AEvKsbR4zwRr6FnZOKRj-19" value="&lt;b&gt;&lt;font style=&quot;font-size: 14px;&quot;&gt;X = BlocksPerDistributionTransmission&lt;/font&gt;&lt;/b&gt;" style="text;html=1;strokeColor=none;fillColor=none;align=center;verticalAlign=middle;whiteSpace=wrap;rounded=0;" vertex="1" parent="1">
          <mxGeometry x="80" y="60" width="280" height="40" as="geometry" />
        </mxCell>
        <mxCell id="AEvKsbR4zwRr6FnZOKRj-24" value="" style="edgeStyle=orthogonalEdgeStyle;rounded=0;orthogonalLoop=1;jettySize=auto;html=1;" edge="1" parent="1" source="AEvKsbR4zwRr6FnZOKRj-22" target="AEvKsbR4zwRr6FnZOKRj-23">
          <mxGeometry relative="1" as="geometry" />
        </mxCell>
        <mxCell id="AEvKsbR4zwRr6FnZOKRj-25" value="transfer" style="edgeLabel;html=1;align=center;verticalAlign=middle;resizable=0;points=[];" vertex="1" connectable="0" parent="AEvKsbR4zwRr6FnZOKRj-24">
          <mxGeometry x="-0.1143" y="3" relative="1" as="geometry">
            <mxPoint y="1" as="offset" />
          </mxGeometry>
        </mxCell>
        <mxCell id="AEvKsbR4zwRr6FnZOKRj-22" value="provider_reward _staging address" style="whiteSpace=wrap;html=1;rounded=0;fillColor=#fff2cc;strokeColor=#d6b656;" vertex="1" parent="1">
          <mxGeometry x="580" y="240" width="120" height="60" as="geometry" />
        </mxCell>
        <mxCell id="AEvKsbR4zwRr6FnZOKRj-28" value="" style="edgeStyle=orthogonalEdgeStyle;rounded=0;orthogonalLoop=1;jettySize=auto;html=1;dashed=1;" edge="1" parent="1" source="AEvKsbR4zwRr6FnZOKRj-23" target="AEvKsbR4zwRr6FnZOKRj-27">
          <mxGeometry relative="1" as="geometry" />
        </mxCell>
        <mxCell id="AEvKsbR4zwRr6FnZOKRj-29" value="ibc transfer" style="edgeLabel;html=1;align=center;verticalAlign=middle;resizable=0;points=[];" vertex="1" connectable="0" parent="AEvKsbR4zwRr6FnZOKRj-28">
          <mxGeometry x="-0.0857" y="-1" relative="1" as="geometry">
            <mxPoint as="offset" />
          </mxGeometry>
        </mxCell>
        <mxCell id="AEvKsbR4zwRr6FnZOKRj-23" value="consumer_to_send_to _provider address" style="whiteSpace=wrap;html=1;rounded=0;fillColor=#d5e8d4;strokeColor=#82b366;" vertex="1" parent="1">
          <mxGeometry x="770" y="240" width="120" height="60" as="geometry" />
        </mxCell>
        <mxCell id="AEvKsbR4zwRr6FnZOKRj-31" value="" style="edgeStyle=orthogonalEdgeStyle;rounded=0;orthogonalLoop=1;jettySize=auto;html=1;" edge="1" parent="1" source="AEvKsbR4zwRr6FnZOKRj-27" target="AEvKsbR4zwRr6FnZOKRj-30">
          <mxGeometry relative="1" as="geometry" />
        </mxCell>
        <mxCell id="AEvKsbR4zwRr6FnZOKRj-32" value="transfer" style="edgeLabel;html=1;align=center;verticalAlign=middle;resizable=0;points=[];" vertex="1" connectable="0" parent="AEvKsbR4zwRr6FnZOKRj-31">
          <mxGeometry x="-0.04" y="1" relative="1" as="geometry">
            <mxPoint as="offset" />
          </mxGeometry>
        </mxCell>
        <mxCell id="AEvKsbR4zwRr6FnZOKRj-27" value="provider_distribution&lt;br&gt;address" style="whiteSpace=wrap;html=1;rounded=0;fillColor=#d5e8d4;strokeColor=#82b366;" vertex="1" parent="1">
          <mxGeometry x="770" y="440" width="120" height="60" as="geometry" />
        </mxCell>
        <mxCell id="AEvKsbR4zwRr6FnZOKRj-30" value="distribution&lt;br&gt;address" style="whiteSpace=wrap;html=1;rounded=0;fillColor=#dae8fc;strokeColor=#6c8ebf;" vertex="1" parent="1">
          <mxGeometry x="580" y="440" width="120" height="60" as="geometry" />
        </mxCell>
        <mxCell id="AEvKsbR4zwRr6FnZOKRj-33" value="&lt;b&gt;&lt;font style=&quot;font-size: 18px;&quot;&gt;Consumer&lt;/font&gt;&lt;/b&gt;" style="text;html=1;strokeColor=none;fillColor=none;align=center;verticalAlign=middle;whiteSpace=wrap;rounded=0;perimeterSpacing=1;" vertex="1" parent="1">
          <mxGeometry x="960" y="252.5" width="100" height="35" as="geometry" />
        </mxCell>
        <mxCell id="AEvKsbR4zwRr6FnZOKRj-34" value="&lt;b&gt;&lt;font style=&quot;font-size: 18px;&quot;&gt;Provider&lt;/font&gt;&lt;/b&gt;" style="text;html=1;strokeColor=none;fillColor=none;align=center;verticalAlign=middle;whiteSpace=wrap;rounded=0;perimeterSpacing=1;" vertex="1" parent="1">
          <mxGeometry x="960" y="452.5" width="100" height="35" as="geometry" />
        </mxCell>
        <mxCell id="AEvKsbR4zwRr6FnZOKRj-35" value="tx" style="rounded=0;whiteSpace=wrap;html=1;" vertex="1" parent="1">
          <mxGeometry x="210" y="130" width="40" height="30" as="geometry" />
        </mxCell>
      </root>
    </mxGraphModel>
  </diagram>
  <diagram id="UyoZAl6XyRWckru6Yjkd" name="Page-5">
    <mxGraphModel dx="946" dy="614" grid="1" gridSize="10" guides="1" tooltips="1" connect="1" arrows="1" fold="1" page="1" pageScale="1" pageWidth="827" pageHeight="1169" math="0" shadow="0">
      <root>
        <mxCell id="0" />
        <mxCell id="1" parent="0" />
        <mxCell id="wFb6TMVg1jxE5f72nD-s-73" value="alt" style="shape=umlFrame;whiteSpace=wrap;html=1;fontSize=12;width=50;height=20;" vertex="1" parent="1">
          <mxGeometry x="477" y="1260" width="350" height="500" as="geometry" />
        </mxCell>
        <mxCell id="wFb6TMVg1jxE5f72nD-s-60" value="end block" style="shape=umlFrame;whiteSpace=wrap;html=1;fontSize=12;" vertex="1" parent="1">
          <mxGeometry x="50" y="560" width="320" height="580" as="geometry" />
        </mxCell>
        <mxCell id="wFb6TMVg1jxE5f72nD-s-1" value="consumer" style="shape=umlLifeline;perimeter=lifelinePerimeter;whiteSpace=wrap;html=1;container=1;collapsible=0;recursiveResize=0;outlineConnect=0;fontSize=14;" vertex="1" parent="1">
          <mxGeometry x="80" y="70" width="100" height="1330" as="geometry" />
        </mxCell>
        <mxCell id="wFb6TMVg1jxE5f72nD-s-2" value="" style="html=1;points=[];perimeter=orthogonalPerimeter;fontSize=14;" vertex="1" parent="wFb6TMVg1jxE5f72nD-s-1">
          <mxGeometry x="45" y="120" width="10" height="40" as="geometry" />
        </mxCell>
        <mxCell id="wFb6TMVg1jxE5f72nD-s-3" value="&lt;font style=&quot;font-size: 12px;&quot;&gt;collect fee&lt;/font&gt;" style="edgeStyle=orthogonalEdgeStyle;html=1;align=left;spacingLeft=2;endArrow=block;rounded=0;entryX=1;entryY=0;fontSize=14;" edge="1" target="wFb6TMVg1jxE5f72nD-s-2" parent="wFb6TMVg1jxE5f72nD-s-1">
          <mxGeometry relative="1" as="geometry">
            <mxPoint x="50" y="100" as="sourcePoint" />
            <Array as="points">
              <mxPoint x="75" y="100" />
            </Array>
          </mxGeometry>
        </mxCell>
        <mxCell id="wFb6TMVg1jxE5f72nD-s-24" value="" style="html=1;points=[];perimeter=orthogonalPerimeter;fontSize=12;" vertex="1" parent="wFb6TMVg1jxE5f72nD-s-1">
          <mxGeometry x="45" y="200" width="10" height="180" as="geometry" />
        </mxCell>
        <mxCell id="wFb6TMVg1jxE5f72nD-s-27" value="" style="html=1;points=[];perimeter=orthogonalPerimeter;fontSize=12;" vertex="1" parent="wFb6TMVg1jxE5f72nD-s-1">
          <mxGeometry x="50" y="230" width="10" height="40" as="geometry" />
        </mxCell>
        <mxCell id="wFb6TMVg1jxE5f72nD-s-28" value="allocate tokens" style="edgeStyle=orthogonalEdgeStyle;html=1;align=left;spacingLeft=2;endArrow=block;rounded=0;entryX=1;entryY=0;fontSize=12;" edge="1" target="wFb6TMVg1jxE5f72nD-s-27" parent="wFb6TMVg1jxE5f72nD-s-1">
          <mxGeometry relative="1" as="geometry">
            <mxPoint x="55" y="210" as="sourcePoint" />
            <Array as="points">
              <mxPoint x="85" y="210" />
            </Array>
          </mxGeometry>
        </mxCell>
        <mxCell id="wFb6TMVg1jxE5f72nD-s-31" value="" style="html=1;points=[];perimeter=orthogonalPerimeter;fontSize=12;" vertex="1" parent="wFb6TMVg1jxE5f72nD-s-1">
          <mxGeometry x="50" y="310" width="10" height="40" as="geometry" />
        </mxCell>
        <mxCell id="wFb6TMVg1jxE5f72nD-s-32" value="update ProviderHoldingPool" style="edgeStyle=orthogonalEdgeStyle;html=1;align=left;spacingLeft=2;endArrow=block;rounded=0;entryX=1;entryY=0;fontSize=12;" edge="1" target="wFb6TMVg1jxE5f72nD-s-31" parent="wFb6TMVg1jxE5f72nD-s-1">
          <mxGeometry relative="1" as="geometry">
            <mxPoint x="55" y="300" as="sourcePoint" />
            <Array as="points">
              <mxPoint x="55" y="290" />
              <mxPoint x="85" y="290" />
              <mxPoint x="85" y="310" />
            </Array>
          </mxGeometry>
        </mxCell>
        <mxCell id="wFb6TMVg1jxE5f72nD-s-33" value="" style="html=1;points=[];perimeter=orthogonalPerimeter;fontSize=12;" vertex="1" parent="wFb6TMVg1jxE5f72nD-s-1">
          <mxGeometry x="45" y="430" width="10" height="40" as="geometry" />
        </mxCell>
        <mxCell id="wFb6TMVg1jxE5f72nD-s-34" value="after&amp;nbsp;BlocksPerDistributionTransmission&amp;nbsp;" style="edgeStyle=orthogonalEdgeStyle;html=1;align=left;spacingLeft=2;endArrow=block;rounded=0;entryX=1;entryY=0;fontSize=12;" edge="1" target="wFb6TMVg1jxE5f72nD-s-33" parent="wFb6TMVg1jxE5f72nD-s-1">
          <mxGeometry relative="1" as="geometry">
            <mxPoint x="50" y="410" as="sourcePoint" />
            <Array as="points">
              <mxPoint x="75" y="410" />
            </Array>
          </mxGeometry>
        </mxCell>
        <mxCell id="wFb6TMVg1jxE5f72nD-s-39" value="" style="html=1;points=[];perimeter=orthogonalPerimeter;fontSize=12;" vertex="1" parent="wFb6TMVg1jxE5f72nD-s-1">
          <mxGeometry x="45" y="530" width="10" height="530" as="geometry" />
        </mxCell>
        <mxCell id="wFb6TMVg1jxE5f72nD-s-42" value="" style="html=1;points=[];perimeter=orthogonalPerimeter;fontSize=12;" vertex="1" parent="wFb6TMVg1jxE5f72nD-s-1">
          <mxGeometry x="50" y="560" width="10" height="40" as="geometry" />
        </mxCell>
        <mxCell id="wFb6TMVg1jxE5f72nD-s-43" value="Provider Holding Pool&amp;nbsp;+&lt;br&gt;tokens in ProviderRewardStaging address&lt;br&gt;==&amp;gt;&lt;br&gt;ProviderPoolWeights" style="edgeStyle=orthogonalEdgeStyle;html=1;align=left;spacingLeft=2;endArrow=block;rounded=0;entryX=1;entryY=0;fontSize=12;" edge="1" target="wFb6TMVg1jxE5f72nD-s-42" parent="wFb6TMVg1jxE5f72nD-s-1">
          <mxGeometry relative="1" as="geometry">
            <mxPoint x="55" y="540" as="sourcePoint" />
            <Array as="points">
              <mxPoint x="85" y="540" />
            </Array>
          </mxGeometry>
        </mxCell>
        <mxCell id="wFb6TMVg1jxE5f72nD-s-44" value="" style="html=1;points=[];perimeter=orthogonalPerimeter;fontSize=12;" vertex="1" parent="wFb6TMVg1jxE5f72nD-s-1">
          <mxGeometry x="50" y="635" width="10" height="40" as="geometry" />
        </mxCell>
        <mxCell id="wFb6TMVg1jxE5f72nD-s-45" value="transfer tokens from &lt;br&gt;ProviderRewardStaging &lt;br&gt;-&amp;gt;&amp;nbsp;ConsumerToSendToProvider" style="edgeStyle=orthogonalEdgeStyle;html=1;align=left;spacingLeft=2;endArrow=block;rounded=0;entryX=1;entryY=0;fontSize=12;" edge="1" target="wFb6TMVg1jxE5f72nD-s-44" parent="wFb6TMVg1jxE5f72nD-s-1">
          <mxGeometry relative="1" as="geometry">
            <mxPoint x="55" y="615" as="sourcePoint" />
            <Array as="points">
              <mxPoint x="85" y="615" />
            </Array>
          </mxGeometry>
        </mxCell>
        <mxCell id="wFb6TMVg1jxE5f72nD-s-61" value="" style="html=1;points=[];perimeter=orthogonalPerimeter;fontSize=12;" vertex="1" parent="wFb6TMVg1jxE5f72nD-s-1">
          <mxGeometry x="50" y="1000" width="10" height="40" as="geometry" />
        </mxCell>
        <mxCell id="wFb6TMVg1jxE5f72nD-s-62" value="clear Provider Holding Pool" style="edgeStyle=orthogonalEdgeStyle;html=1;align=left;spacingLeft=2;endArrow=block;rounded=0;entryX=1;entryY=0;fontSize=12;" edge="1" target="wFb6TMVg1jxE5f72nD-s-61" parent="wFb6TMVg1jxE5f72nD-s-1">
          <mxGeometry relative="1" as="geometry">
            <mxPoint x="55" y="980" as="sourcePoint" />
            <Array as="points">
              <mxPoint x="85" y="980" />
            </Array>
          </mxGeometry>
        </mxCell>
        <mxCell id="wFb6TMVg1jxE5f72nD-s-35" value="deliver txs" style="shape=umlFrame;whiteSpace=wrap;html=1;fontSize=12;" vertex="1" parent="1">
          <mxGeometry x="50" y="150" width="280" height="100" as="geometry" />
        </mxCell>
        <mxCell id="wFb6TMVg1jxE5f72nD-s-38" value="begin block" style="shape=umlFrame;whiteSpace=wrap;html=1;fontSize=12;" vertex="1" parent="1">
          <mxGeometry x="50" y="250" width="280" height="210" as="geometry" />
        </mxCell>
        <mxCell id="wFb6TMVg1jxE5f72nD-s-46" value="Provider" style="shape=umlLifeline;perimeter=lifelinePerimeter;whiteSpace=wrap;html=1;container=1;collapsible=0;recursiveResize=0;outlineConnect=0;fontSize=12;" vertex="1" parent="1">
          <mxGeometry x="500" y="70" width="100" height="1790" as="geometry" />
        </mxCell>
        <mxCell id="wFb6TMVg1jxE5f72nD-s-48" value="" style="html=1;points=[];perimeter=orthogonalPerimeter;fontSize=12;" vertex="1" parent="wFb6TMVg1jxE5f72nD-s-46">
          <mxGeometry x="45" y="690" width="10" height="40" as="geometry" />
        </mxCell>
        <mxCell id="wFb6TMVg1jxE5f72nD-s-51" value="" style="html=1;points=[];perimeter=orthogonalPerimeter;fontSize=12;" vertex="1" parent="wFb6TMVg1jxE5f72nD-s-46">
          <mxGeometry x="45" y="790.04" width="10" height="169.96" as="geometry" />
        </mxCell>
        <mxCell id="wFb6TMVg1jxE5f72nD-s-63" value="" style="html=1;points=[];perimeter=orthogonalPerimeter;fontSize=12;" vertex="1" parent="wFb6TMVg1jxE5f72nD-s-46">
          <mxGeometry x="50" y="825" width="10" height="40" as="geometry" />
        </mxCell>
        <mxCell id="wFb6TMVg1jxE5f72nD-s-64" value="validate packet" style="edgeStyle=orthogonalEdgeStyle;html=1;align=left;spacingLeft=2;endArrow=block;rounded=0;entryX=1;entryY=0;fontSize=12;" edge="1" target="wFb6TMVg1jxE5f72nD-s-63" parent="wFb6TMVg1jxE5f72nD-s-46">
          <mxGeometry relative="1" as="geometry">
            <mxPoint x="55" y="805" as="sourcePoint" />
            <Array as="points">
              <mxPoint x="85" y="805" />
            </Array>
          </mxGeometry>
        </mxCell>
        <mxCell id="wFb6TMVg1jxE5f72nD-s-65" value="" style="html=1;points=[];perimeter=orthogonalPerimeter;fontSize=12;" vertex="1" parent="wFb6TMVg1jxE5f72nD-s-46">
          <mxGeometry x="50" y="900" width="10" height="40" as="geometry" />
        </mxCell>
        <mxCell id="wFb6TMVg1jxE5f72nD-s-66" value="add packet to PendingProviderPoolWeights" style="edgeStyle=orthogonalEdgeStyle;html=1;align=left;spacingLeft=2;endArrow=block;rounded=0;entryX=1;entryY=0;fontSize=12;" edge="1" target="wFb6TMVg1jxE5f72nD-s-65" parent="wFb6TMVg1jxE5f72nD-s-46">
          <mxGeometry relative="1" as="geometry">
            <mxPoint x="55" y="880" as="sourcePoint" />
            <Array as="points">
              <mxPoint x="85" y="880" />
            </Array>
          </mxGeometry>
        </mxCell>
        <mxCell id="wFb6TMVg1jxE5f72nD-s-67" value="" style="html=1;points=[];perimeter=orthogonalPerimeter;fontSize=12;" vertex="1" parent="wFb6TMVg1jxE5f72nD-s-46">
          <mxGeometry x="45" y="1110" width="10" height="620" as="geometry" />
        </mxCell>
        <mxCell id="wFb6TMVg1jxE5f72nD-s-84" value="" style="html=1;points=[];perimeter=orthogonalPerimeter;fontSize=12;" vertex="1" parent="wFb6TMVg1jxE5f72nD-s-46">
          <mxGeometry x="50" y="1430" width="10" height="40" as="geometry" />
        </mxCell>
        <mxCell id="wFb6TMVg1jxE5f72nD-s-85" value="transfer tokens to distribution address" style="edgeStyle=orthogonalEdgeStyle;html=1;align=left;spacingLeft=2;endArrow=block;rounded=0;entryX=1;entryY=0;fontSize=12;" edge="1" target="wFb6TMVg1jxE5f72nD-s-84" parent="wFb6TMVg1jxE5f72nD-s-46">
          <mxGeometry relative="1" as="geometry">
            <mxPoint x="55" y="1410" as="sourcePoint" />
            <Array as="points">
              <mxPoint x="85" y="1410" />
            </Array>
          </mxGeometry>
        </mxCell>
        <mxCell id="wFb6TMVg1jxE5f72nD-s-86" value="" style="html=1;points=[];perimeter=orthogonalPerimeter;fontSize=12;" vertex="1" parent="wFb6TMVg1jxE5f72nD-s-46">
          <mxGeometry x="50" y="1500" width="10" height="40" as="geometry" />
        </mxCell>
        <mxCell id="wFb6TMVg1jxE5f72nD-s-87" value="allocate tokens to validators based on weights&lt;br&gt;(AllocateTokensToValidator)" style="edgeStyle=orthogonalEdgeStyle;html=1;align=left;spacingLeft=2;endArrow=block;rounded=0;entryX=1;entryY=0;fontSize=12;" edge="1" target="wFb6TMVg1jxE5f72nD-s-86" parent="wFb6TMVg1jxE5f72nD-s-46">
          <mxGeometry relative="1" as="geometry">
            <mxPoint x="55" y="1480" as="sourcePoint" />
            <Array as="points">
              <mxPoint x="85" y="1480" />
            </Array>
          </mxGeometry>
        </mxCell>
        <mxCell id="wFb6TMVg1jxE5f72nD-s-88" value="" style="html=1;points=[];perimeter=orthogonalPerimeter;fontSize=12;" vertex="1" parent="wFb6TMVg1jxE5f72nD-s-46">
          <mxGeometry x="50" y="1570" width="10" height="40" as="geometry" />
        </mxCell>
        <mxCell id="wFb6TMVg1jxE5f72nD-s-89" value="add the excess part to excess pool&lt;br&gt;(excess = remaining after decimal truncated + reward for non-exist validator)" style="edgeStyle=orthogonalEdgeStyle;html=1;align=left;spacingLeft=2;endArrow=block;rounded=0;entryX=1;entryY=0;fontSize=12;" edge="1" target="wFb6TMVg1jxE5f72nD-s-88" parent="wFb6TMVg1jxE5f72nD-s-46">
          <mxGeometry relative="1" as="geometry">
            <mxPoint x="55" y="1550" as="sourcePoint" />
            <Array as="points">
              <mxPoint x="85" y="1550" />
            </Array>
          </mxGeometry>
        </mxCell>
        <mxCell id="wFb6TMVg1jxE5f72nD-s-92" value="" style="html=1;points=[];perimeter=orthogonalPerimeter;fontSize=12;" vertex="1" parent="wFb6TMVg1jxE5f72nD-s-46">
          <mxGeometry x="50" y="1640" width="10" height="40" as="geometry" />
        </mxCell>
        <mxCell id="wFb6TMVg1jxE5f72nD-s-93" value="clear PendingProviderPoolWeights" style="edgeStyle=orthogonalEdgeStyle;html=1;align=left;spacingLeft=2;endArrow=block;rounded=0;entryX=1;entryY=0;fontSize=12;" edge="1" target="wFb6TMVg1jxE5f72nD-s-92" parent="wFb6TMVg1jxE5f72nD-s-46">
          <mxGeometry relative="1" as="geometry">
            <mxPoint x="55" y="1620" as="sourcePoint" />
            <Array as="points">
              <mxPoint x="85" y="1620" />
            </Array>
          </mxGeometry>
        </mxCell>
        <mxCell id="wFb6TMVg1jxE5f72nD-s-49" value="ibc transfer tokens to provider_distribution address" style="html=1;verticalAlign=bottom;startArrow=oval;endArrow=block;startSize=8;rounded=0;fontSize=12;" edge="1" target="wFb6TMVg1jxE5f72nD-s-48" parent="1">
          <mxGeometry relative="1" as="geometry">
            <mxPoint x="140" y="760" as="sourcePoint" />
          </mxGeometry>
        </mxCell>
        <mxCell id="wFb6TMVg1jxE5f72nD-s-50" value="alt" style="shape=umlFrame;whiteSpace=wrap;html=1;fontSize=12;width=40;height=15;" vertex="1" parent="1">
          <mxGeometry x="80" y="780" width="230" height="250" as="geometry" />
        </mxCell>
        <mxCell id="wFb6TMVg1jxE5f72nD-s-52" value="ibc transfer ProviderPoolWeights packet" style="html=1;verticalAlign=bottom;startArrow=oval;endArrow=block;startSize=8;rounded=0;fontSize=12;exitX=0.375;exitY=0.222;exitDx=0;exitDy=0;exitPerimeter=0;" edge="1" target="wFb6TMVg1jxE5f72nD-s-51" parent="1">
          <mxGeometry relative="1" as="geometry">
            <mxPoint x="140" y="860" as="sourcePoint" />
          </mxGeometry>
        </mxCell>
        <mxCell id="wFb6TMVg1jxE5f72nD-s-53" value="&lt;font style=&quot;font-size: 14px;&quot;&gt;&lt;i&gt;[if channel is established]&lt;/i&gt;&lt;/font&gt;" style="text;html=1;strokeColor=none;fillColor=none;align=center;verticalAlign=middle;whiteSpace=wrap;rounded=0;fontSize=12;" vertex="1" parent="1">
          <mxGeometry x="140" y="810" width="80" height="20" as="geometry" />
        </mxCell>
        <mxCell id="wFb6TMVg1jxE5f72nD-s-56" value="" style="endArrow=none;dashed=1;html=1;rounded=0;fontSize=12;entryX=1.008;entryY=0.442;entryDx=0;entryDy=0;entryPerimeter=0;" edge="1" parent="1" target="wFb6TMVg1jxE5f72nD-s-50">
          <mxGeometry width="50" height="50" relative="1" as="geometry">
            <mxPoint x="80" y="891" as="sourcePoint" />
            <mxPoint x="120" y="890" as="targetPoint" />
          </mxGeometry>
        </mxCell>
        <mxCell id="wFb6TMVg1jxE5f72nD-s-57" value="&lt;font style=&quot;font-size: 14px;&quot;&gt;&lt;i&gt;[if channel is not established]&lt;/i&gt;&lt;/font&gt;" style="text;html=1;strokeColor=none;fillColor=none;align=center;verticalAlign=middle;whiteSpace=wrap;rounded=0;fontSize=12;" vertex="1" parent="1">
          <mxGeometry x="140" y="910" width="110" height="30" as="geometry" />
        </mxCell>
        <mxCell id="wFb6TMVg1jxE5f72nD-s-58" value="" style="html=1;points=[];perimeter=orthogonalPerimeter;fontSize=14;" vertex="1" parent="1">
          <mxGeometry x="130" y="970" width="10" height="40" as="geometry" />
        </mxCell>
        <mxCell id="wFb6TMVg1jxE5f72nD-s-59" value="&lt;font style=&quot;font-size: 12px;&quot;&gt;add&amp;nbsp;ProviderPoolWeights to pending&lt;br&gt;&lt;/font&gt;&amp;nbsp;" style="edgeStyle=orthogonalEdgeStyle;html=1;align=left;spacingLeft=2;endArrow=block;rounded=0;entryX=1;entryY=0;fontSize=14;" edge="1" target="wFb6TMVg1jxE5f72nD-s-58" parent="1">
          <mxGeometry x="0.1765" relative="1" as="geometry">
            <mxPoint x="135" y="940" as="sourcePoint" />
            <Array as="points">
              <mxPoint x="135" y="950" />
              <mxPoint x="165" y="950" />
              <mxPoint x="165" y="970" />
            </Array>
            <mxPoint as="offset" />
          </mxGeometry>
        </mxCell>
        <mxCell id="wFb6TMVg1jxE5f72nD-s-71" value="" style="html=1;points=[];perimeter=orthogonalPerimeter;fontSize=12;" vertex="1" parent="1">
          <mxGeometry x="550" y="1209" width="10" height="40" as="geometry" />
        </mxCell>
        <mxCell id="wFb6TMVg1jxE5f72nD-s-72" value="get pending ProviderPoolWeights" style="edgeStyle=orthogonalEdgeStyle;html=1;align=left;spacingLeft=2;endArrow=block;rounded=0;entryX=1;entryY=0;fontSize=12;" edge="1" target="wFb6TMVg1jxE5f72nD-s-71" parent="1">
          <mxGeometry relative="1" as="geometry">
            <mxPoint x="555" y="1189" as="sourcePoint" />
            <Array as="points">
              <mxPoint x="585" y="1189" />
            </Array>
          </mxGeometry>
        </mxCell>
        <mxCell id="wFb6TMVg1jxE5f72nD-s-75" value="&lt;font style=&quot;font-size: 14px;&quot;&gt;&lt;i&gt;[if not enough tokens to fulfill ProviderPoolWeights.TotalTokens]&lt;/i&gt;&lt;/font&gt;" style="text;html=1;strokeColor=none;fillColor=none;align=center;verticalAlign=middle;whiteSpace=wrap;rounded=0;fontSize=12;" vertex="1" parent="1">
          <mxGeometry x="550" y="1270" width="230" height="70" as="geometry" />
        </mxCell>
        <mxCell id="wFb6TMVg1jxE5f72nD-s-78" value="" style="html=1;points=[];perimeter=orthogonalPerimeter;fontSize=14;" vertex="1" parent="1">
          <mxGeometry x="550" y="1350" width="10" height="40" as="geometry" />
        </mxCell>
        <mxCell id="wFb6TMVg1jxE5f72nD-s-79" value="&lt;font style=&quot;font-size: 12px;&quot;&gt;doing nothing, return&lt;/font&gt;" style="edgeStyle=orthogonalEdgeStyle;html=1;align=left;spacingLeft=2;endArrow=block;rounded=0;entryX=1;entryY=0;fontSize=14;" edge="1" target="wFb6TMVg1jxE5f72nD-s-78" parent="1">
          <mxGeometry relative="1" as="geometry">
            <mxPoint x="555" y="1330" as="sourcePoint" />
            <Array as="points">
              <mxPoint x="585" y="1330" />
            </Array>
          </mxGeometry>
        </mxCell>
        <mxCell id="wFb6TMVg1jxE5f72nD-s-80" value="" style="endArrow=none;dashed=1;html=1;rounded=0;fontSize=12;" edge="1" parent="1">
          <mxGeometry width="50" height="50" relative="1" as="geometry">
            <mxPoint x="480" y="1420" as="sourcePoint" />
            <mxPoint x="820" y="1420" as="targetPoint" />
          </mxGeometry>
        </mxCell>
        <mxCell id="wFb6TMVg1jxE5f72nD-s-81" value="&lt;font style=&quot;font-size: 14px;&quot;&gt;&lt;i&gt;[if enough tokens to fulfill ProviderPoolWeights.TotalTokens]&lt;/i&gt;&lt;/font&gt;" style="text;html=1;strokeColor=none;fillColor=none;align=center;verticalAlign=middle;whiteSpace=wrap;rounded=0;fontSize=12;" vertex="1" parent="1">
          <mxGeometry x="560" y="1420" width="230" height="50" as="geometry" />
        </mxCell>
        <mxCell id="UBTi0IljEVjN1L2QI-o9-1" value="end block" style="shape=umlFrame;whiteSpace=wrap;html=1;fontSize=12;" vertex="1" parent="1">
          <mxGeometry x="430" y="1169" width="580" height="641" as="geometry" />
        </mxCell>
      </root>
    </mxGraphModel>
  </diagram>
</mxfile>
